<svg t="1709302470649" class="icon" viewBox="0 0 1024 1024" version="1.1" xmlns="http://www.w3.org/2000/svg" p-id="7978" width="200" height="200"><path d="M508.202667 270.08l245.76 245.76-337.066667 337.493333a107.562667 107.562667 0 0 1-57.6 29.866667l-202.24 33.706667a41.386667 41.386667 0 0 1-7.253333 0.426666 43.392 43.392 0 0 1-30.293334-12.8 43.861333 43.861333 0 0 1-12.373333-37.546666l33.706667-202.24A107.562667 107.562667 0 0 1 170.666667 607.146667zM866.133333 157.866667a173.056 173.056 0 0 0-245.76 0l-51.626666 51.626666 245.76 245.76 51.626666-51.626666a173.056 173.056 0 0 0 0-245.76z" fill="#707070" p-id="7979"></path></svg>